<svg xmlns="http://www.w3.org/2000/svg" viewBox="0 0 1920 1080" width="1920" height="1080"
  preserveAspectRatio="xMidYMid meet" style="width: 100%; height: 100%; transform: translate3d(0px, 0px, 0px);">
  <defs>
    <clipPath id="__lottie_element_2">
      <rect width="1920" height="1080" x="0" y="0"></rect>
    </clipPath>
    <clipPath id="__lottie_element_43">
      <path d="M0,0 L2048,0 L2048,1706 L0,1706z"></path>
    </clipPath>
    <path d="" fill-opacity="1"></path>
    <clipPath id="__lottie_element_77">
      <path d="M0,0 L2048,0 L2048,1706 L0,1706z"></path>
    </clipPath>
    <clipPath id="__lottie_element_109">
      <path d="M0,0 L2048,0 L2048,1706 L0,1706z"></path>
    </clipPath>
    <clipPath id="__lottie_element_113">
      <path d="M0,0 L2048,0 L2048,1706 L0,1706z"></path>
    </clipPath>
    <clipPath id="__lottie_element_129">
      <path d="M0,0 L2048,0 L2048,1706 L0,1706z"></path>
    </clipPath>
    <path d="" fill-opacity="1"></path>
    <clipPath id="__lottie_element_136">
      <path d="M0,0 L2048,0 L2048,1706 L0,1706z"></path>
    </clipPath>
    <clipPath id="__lottie_element_140">
      <path d="M0,0 L2048,0 L2048,1706 L0,1706z"></path>
    </clipPath>
    <clipPath id="__lottie_element_148">
      <path d="M0,0 L2048,0 L2048,1706 L0,1706z"></path>
    </clipPath>
    <clipPath id="__lottie_element_158">
      <path d="M0,0 L2048,0 L2048,1706 L0,1706z"></path>
    </clipPath>
    <clipPath id="__lottie_element_167">
      <path d="M0,0 L2048,0 L2048,1706 L0,1706z"></path>
    </clipPath>
    <clipPath id="__lottie_element_175">
      <path d="M0,0 L2048,0 L2048,1706 L0,1706z"></path>
    </clipPath>
    <clipPath id="__lottie_element_179">
      <path d="M0,0 L2048,0 L2048,1706 L0,1706z"></path>
    </clipPath>
    <clipPath id="__lottie_element_187">
      <path d="M0,0 L2048,0 L2048,1706 L0,1706z"></path>
    </clipPath>
    <clipPath id="__lottie_element_196">
      <path d="M0,0 L2048,0 L2048,1706 L0,1706z"></path>
    </clipPath>
  </defs>
  <g clip-path="url(#__lottie_element_2)">
    <g transform="matrix(1,0,0,1,0,0)" opacity="1" style="display: block;">
      <rect width="1920" height="1080" fill="#373636"></rect>
    </g>
    <g clip-path="url(#__lottie_element_43)"
      transform="matrix(0.7936699986457825,0,0,0.7936699986457825,331.28192138671875,-57.00048828125)" opacity="1"
      style="display: block;">
      <g clip-path="url(#__lottie_element_175)" transform="matrix(1,0,0,1,0,0)" opacity="1" style="display: block;">
        <g clip-path="url(#__lottie_element_196)" transform="matrix(1,0,0,1,0,0)" opacity="1" style="display: block;">
          <g transform="matrix(1,0,0,1,0,0)" opacity="1" style="display: block;">
            <image width="2048px" height="1706px" preserveAspectRatio="xMidYMid slice" xlink:href="images/img_18.png">
            </image>
          </g>
        </g>
        <g clip-path="url(#__lottie_element_187)" transform="matrix(1,0,0,1,0,0)" opacity="1" style="display: block;">
          <g transform="matrix(1,0,0,1,0,0)" opacity="1" style="display: block;">
            <image width="2048px" height="1706px" preserveAspectRatio="xMidYMid slice" xlink:href="images/img_17.png">
            </image>
          </g>
        </g>
        <g clip-path="url(#__lottie_element_179)" transform="matrix(1,0,0,1,0,0)" opacity="1" style="display: block;">
          <g transform="matrix(1,0,0,1,0,0)" opacity="1" style="display: block;">
            <image width="2048px" height="1706px" preserveAspectRatio="xMidYMid slice" xlink:href="images/img_16.png">
            </image>
          </g>
        </g>
      </g>
      <g clip-path="url(#__lottie_element_136)" transform="matrix(1,0,0,1,0,0)" opacity="1" style="display: block;">
        <g clip-path="url(#__lottie_element_167)" transform="matrix(1,0,0,1,0,0)" opacity="1" style="display: block;">
          <g transform="matrix(1,0,0,1,0,0)" opacity="1" style="display: block;">
            <image width="2048px" height="1706px" preserveAspectRatio="xMidYMid slice" xlink:href="images/img_15.png">
            </image>
          </g>
        </g>
        <g clip-path="url(#__lottie_element_158)" transform="matrix(1,0,0,1,0,0)" opacity="1" style="display: block;">
          <g transform="matrix(1,0,0,1,0,0)" opacity="1" style="display: block;">
            <image width="2048px" height="1706px" preserveAspectRatio="xMidYMid slice" xlink:href="images/img_14.png">
            </image>
          </g>
        </g>
        <g clip-path="url(#__lottie_element_148)" transform="matrix(1,0,0,1,0,0)" opacity="1" style="display: block;">
          <g transform="matrix(1,0,0,1,0,0)" opacity="1" style="display: block;">
            <image width="2048px" height="1706px" preserveAspectRatio="xMidYMid slice" xlink:href="images/img_13.png">
            </image>
          </g>
        </g>
        <g clip-path="url(#__lottie_element_140)" transform="matrix(1,0,0,1,0,0)" opacity="0.6784300000000001"
          style="display: block;">
          <g transform="matrix(1,0,0,1,0,0)" opacity="1" style="display: block;">
            <image width="2048px" height="1706px" preserveAspectRatio="xMidYMid slice" xlink:href="images/img_12.png">
            </image>
          </g>
        </g>
      </g>
      <g clip-path="url(#__lottie_element_129)" transform="matrix(1,0,0,1,0,0)" opacity="1" style="display: block;">
        <g transform="matrix(1,0,0,1,0,0)" opacity="1" style="display: block;">
          <image width="2048px" height="1706px" preserveAspectRatio="xMidYMid slice" xlink:href="images/img_11.png">
          </image>
        </g>
      </g>
      <g transform="matrix(1,0,0,1,1024,853)" opacity="1" style="display: block;">
        <g opacity="1" transform="matrix(1,0,0,1,0,0)">
          <path stroke-linecap="butt" stroke-linejoin="miter" fill-opacity="0" stroke-miterlimit="4"
            stroke="rgb(255,255,255)" stroke-opacity="1" stroke-width="2"
            d=" M-461.4766540527344,-10.668227195739746 C-461.4766540527344,-10.668227195739746 -384.1145935058594,-67.27177429199219 -371.2402648925781,-122.71703338623047 C-355.0452575683594,-192.38827514648438 -376.21697998046875,-239.95025634765625 -376.21697998046875,-239.95025634765625">
          </path>
        </g>
      </g>
      <g transform="matrix(1,0,0,1,1024,853)" opacity="1" style="display: block;">
        <g opacity="1" transform="matrix(1,0,0,1,0,0)">
          <path stroke-linecap="butt" stroke-linejoin="miter" fill-opacity="0" stroke-miterlimit="4"
            stroke="rgb(255,255,255)" stroke-opacity="1" stroke-width="2"
            d=" M-489.3735656738281,-198.9686279296875 C-489.3735656738281,-198.9686279296875 -480.01763916015625,-175.9168243408203 -487.96990966796875,-141.7215576171875 C-496.4613952636719,-105.16446685791016 -530.8862915039062,-77.95146179199219 -530.8862915039062,-77.95146179199219">
          </path>
        </g>
      </g>
      <g clip-path="url(#__lottie_element_109)" transform="matrix(1,0,0,1,0,0)" opacity="1" style="display: block;">
        <g clip-path="url(#__lottie_element_113)" transform="matrix(1,0,0,1,0,0)" opacity="1" style="display: block;">
          <g transform="matrix(1,0,0,1,0,0)" opacity="1" style="display: block;">
            <image width="2048px" height="1706px" preserveAspectRatio="xMidYMid slice" xlink:href="images/img_10.png">
            </image>
          </g>
        </g>
      </g>
      <g clip-path="url(#__lottie_element_77)" transform="matrix(1,0,0,1,0,0)" opacity="1" style="display: block;">
        <g transform="matrix(1,0,0,1,0,0)" opacity="1" style="display: block;">
          <image width="2048px" height="1706px" preserveAspectRatio="xMidYMid slice" xlink:href="images/img_9.png">
          </image>
        </g>
        <g transform="matrix(1,0,0,1,0,0)" opacity="1" style="display: block;">
          <image width="2048px" height="1706px" preserveAspectRatio="xMidYMid slice" xlink:href="images/img_8.png">
          </image>
        </g>
        <g transform="matrix(1,0,0,1,0,0)" opacity="1" style="display: block;">
          <image width="2048px" height="1706px" preserveAspectRatio="xMidYMid slice" xlink:href="images/img_7.png">
          </image>
        </g>
        <g transform="matrix(1,0,0,1,0,0)" opacity="1" style="display: block;">
          <image width="2048px" height="1706px" preserveAspectRatio="xMidYMid slice" xlink:href="images/img_6.png">
          </image>
        </g>
        <g transform="matrix(1,0,0,1,0,0)" opacity="1" style="display: block;">
          <image width="2048px" height="1706px" preserveAspectRatio="xMidYMid slice" xlink:href="images/img_5.png">
          </image>
        </g>
        <g transform="matrix(1,0,0,1,0,0)" opacity="1" style="display: block;">
          <image width="2048px" height="1706px" preserveAspectRatio="xMidYMid slice" xlink:href="images/img_4.png">
          </image>
        </g>
        <g transform="matrix(1,0,0,1,0,0)" opacity="1" style="display: block;">
          <image width="2048px" height="1706px" preserveAspectRatio="xMidYMid slice" xlink:href="images/img_3.png">
          </image>
        </g>
        <g transform="matrix(1,0,0,1,0,0)" opacity="1" style="display: block;">
          <image width="2048px" height="1706px" preserveAspectRatio="xMidYMid slice" xlink:href="images/img_2.png">
          </image>
        </g>
        <g transform="matrix(1,0,0,1,0,0)" opacity="1" style="display: block;">
          <image width="2048px" height="1706px" preserveAspectRatio="xMidYMid slice" xlink:href="images/img_1.png">
          </image>
        </g>
      </g>
      <g transform="matrix(1,0,0,1,1024,853)" opacity="1" style="display: block;">
        <g opacity="1" transform="matrix(1,0,0,1,0,0)">
          <path stroke-linecap="butt" stroke-linejoin="miter" fill-opacity="0" stroke-miterlimit="4"
            stroke="rgb(255,255,255)" stroke-opacity="1" stroke-width="2"
            d=" M-478.875,-175.25 C-478.875,-175.25 -498.125,-171.5 -498.125,-171.5 C-498.125,-171.5 -499,-164.5 -499,-164.5 C-499,-164.5 -492.5,-157.125 -492.5,-157.125 C-492.5,-157.125 -474.875,-159.5 -474.875,-159.5 C-474.875,-159.5 -474.875,-164.625 -474.875,-164.625 C-474.875,-164.625 -473.125,-166.75 -473.125,-166.75 C-473.125,-166.75 -478.875,-175.25 -478.875,-175.25z">
          </path>
        </g>
      </g>
      <g transform="matrix(1,0,0,1,1024,853)" opacity="1" style="display: block;">
        <g opacity="1" transform="matrix(1,0,0,1,0,0)">
          <path stroke-linecap="butt" stroke-linejoin="miter" fill-opacity="0" stroke-miterlimit="4"
            stroke="rgb(255,255,255)" stroke-opacity="1" stroke-width="2"
            d=" M-427,-38 C-427,-38 -446.75,-34.5 -446.75,-34.5 C-446.75,-34.5 -447.75,-28 -447.75,-28 C-447.75,-28 -441,-20 -441,-20 C-441,-20 -423.5,-23 -423.5,-23 C-423.5,-23 -421.5,-29 -421.5,-29 C-421.5,-29 -427,-38 -427,-38z">
          </path>
        </g>
      </g>
      <g transform="matrix(1,0,0,1,1024,853)" opacity="1" style="display: block;">
        <g opacity="1" transform="matrix(1,0,0,1,0,0)">
          <path stroke-linecap="butt" stroke-linejoin="miter" fill-opacity="0" stroke-miterlimit="4"
            stroke="rgb(255,255,255)" stroke-opacity="1" stroke-width="2"
            d=" M-359.375,-143.75 C-359.375,-143.75 -379.375,-139.875 -379.375,-139.875 C-379.375,-139.875 -379.375,-138.25 -379.375,-138.25 C-379.375,-138.25 -379.75,-132.625 -379.75,-132.625 C-379.75,-132.625 -373.5,-124.625 -373.5,-124.625 C-373.5,-124.625 -355.875,-128.5 -355.875,-128.5 C-355.875,-128.5 -356.625,-133.25 -356.625,-133.25 C-356.625,-133.25 -353.875,-133.75 -352.875,-133.875 C-351.875,-134 -359.375,-143.75 -359.375,-143.75z">
          </path>
        </g>
      </g>
      <g transform="matrix(1,0,0,1,1024,853)" opacity="1" style="display: block;">
        <g opacity="1" transform="matrix(1,0,0,1,0,0)">
          <path stroke-linecap="butt" stroke-linejoin="miter" fill-opacity="0" stroke-miterlimit="4"
            stroke="rgb(255,255,255)" stroke-opacity="1" stroke-width="2"
            d=" M-336.875,-241 C-336.875,-241 -356.25,-237.125 -356.25,-237.125 C-356.25,-237.125 -356.875,-229.25 -356.875,-229.25 C-356.875,-229.25 -349.25,-220.625 -349.25,-220.625 C-349.25,-220.625 -332.625,-224.625 -332.625,-224.625 C-332.625,-224.625 -332.5,-230.125 -332.5,-230.125 C-332.5,-230.125 -331,-230.625 -331,-230.625 C-331,-230.625 -336.875,-241 -336.875,-241z">
          </path>
        </g>
      </g>
      <g transform="matrix(1,0,0,1,1024,853)" opacity="1" style="display: block;">
        <g opacity="1" transform="matrix(1,0,0,1,0,0)">
          <path stroke-linecap="butt" stroke-linejoin="miter" fill-opacity="0" stroke-miterlimit="4"
            stroke="rgb(255,255,255)" stroke-opacity="1" stroke-width="2"
            d=" M-330,-24.25 C-330,-24.25 -335.75,-12.5 -335.75,-12.5 C-335.75,-12.5 -333.75,-11.5 -333.75,-11.5 C-333.75,-11.5 -334,-4.75 -334,-4.75 C-334,-4.75 -315.875,-3.25 -315.875,-3.25 C-315.875,-3.25 -309.75,-12.875 -309.75,-12.875 C-309.75,-12.875 -310.5,-22.25 -310.5,-22.25 C-310.5,-22.25 -330,-24.25 -330,-24.25z">
          </path>
        </g>
      </g>
      <g transform="matrix(1,0,0,1,1024,853)" opacity="1" style="display: block;">
        <g opacity="1" transform="matrix(1,0,0,1,0,0)">
          <path stroke-linecap="butt" stroke-linejoin="miter" fill-opacity="0" stroke-miterlimit="4"
            stroke="rgb(255,255,255)" stroke-opacity="1" stroke-width="2"
            d=" M-297.75,64.25 C-297.75,64.25 -304.625,73.875 -304.625,73.875 C-304.625,73.875 -302.625,75.125 -302.625,75.125 C-302.625,75.125 -303,82.875 -303,82.875 C-303,82.875 -281.375,87.125 -281.375,87.125 C-281.375,87.125 -274,78.25 -274,78.25 C-274,78.25 -273.75,71.125 -273.75,71.125 C-273.75,71.125 -276.5,68.25 -276.5,68.25 C-276.5,68.25 -297.75,64.25 -297.75,64.25z">
          </path>
        </g>
      </g>
      <g transform="matrix(1,0,0,1,1024,853)" opacity="1" style="display: block;">
        <g opacity="1" transform="matrix(1,0,0,1,0,0)">
          <path stroke-linecap="butt" stroke-linejoin="miter" fill-opacity="0" stroke-miterlimit="4"
            stroke="rgb(255,255,255)" stroke-opacity="1" stroke-width="2"
            d=" M-194.625,-130.125 C-194.625,-130.125 -214.375,-125.625 -214.375,-125.625 C-214.375,-125.625 -215,-118.625 -215,-118.625 C-215,-118.625 -208.375,-111.125 -208.375,-111.125 C-208.375,-111.125 -191,-114.5 -191,-114.5 C-191,-114.5 -190.375,-120.125 -188.125,-120.75 C-185.875,-121.375 -194.625,-130.125 -194.625,-130.125z">
          </path>
        </g>
      </g>
      <g transform="matrix(1,0,0,1,1024,853)" opacity="1" style="display: block;">
        <g opacity="1" transform="matrix(1,0,0,1,0,0)">
          <path stroke-linecap="butt" stroke-linejoin="miter" fill-opacity="0" stroke-miterlimit="4"
            stroke="rgb(255,255,255)" stroke-opacity="1" stroke-width="2"
            d=" M-179,-206 C-179,-206 -185.125,-195.5 -185.125,-195.5 C-185.125,-195.5 -183.125,-194.75 -183.125,-194.75 C-183.125,-194.75 -183.25,-186.875 -183.25,-186.875 C-183.25,-186.875 -161.5,-183.625 -161.5,-183.625 C-161.5,-183.625 -153.625,-192 -153.625,-192 C-153.625,-192 -154,-200.25 -154,-200.25 C-154,-200.25 -155.125,-201.875 -155.125,-201.875 C-155.125,-201.875 -179,-206 -179,-206z">
          </path>
        </g>
      </g>
      <g transform="matrix(1,0,0,1,1024,853)" opacity="1" style="display: block;">
        <g opacity="1" transform="matrix(1,0,0,1,0,0)">
          <path stroke-linecap="butt" stroke-linejoin="miter" fill-opacity="0" stroke-miterlimit="4"
            stroke="rgb(255,255,255)" stroke-opacity="1" stroke-width="2"
            d=" M-11.75,-99.875 C-11.75,-99.875 -18.125,-89.5 -18.125,-89.5 C-18.125,-89.5 -15.75,-88 -15.75,-88 C-15.75,-88 -15.75,-85.25 -15.5,-81 C-15.25,-76.75 5.875,-78 5.875,-78 C5.875,-78 14,-86.625 14,-86.625 C14,-86.625 12.75,-96.25 12.75,-96.25 C12.75,-96.25 -11.75,-99.875 -11.75,-99.875z">
          </path>
        </g>
      </g>
      <g transform="matrix(1,0,0,1,1024,853)" opacity="1" style="display: block;">
        <g opacity="1" transform="matrix(1,0,0,1,0,0)">
          <path stroke-linecap="butt" stroke-linejoin="miter" fill-opacity="0" stroke-miterlimit="4"
            stroke="rgb(255,255,255)" stroke-opacity="1" stroke-width="2"
            d=" M210,-310 C210,-310 195,-308.5 195,-308.5 C195,-308.5 184.5,-306.5 184.5,-306.5 C184.5,-306.5 175.25,-304.5 175.25,-304.5 C175.25,-304.5 160.75,-299.5 160.75,-299.5 C160.75,-299.5 156.75,-294 156.75,-294 C156.75,-294 133,-283.75 133,-283.75 C133,-283.75 152.25,-270.75 152.25,-270.75 C152.25,-270.75 243.25,-223.25 243.25,-223.25 C243.25,-223.25 255.5,-229.5 255.5,-229.5 C255.5,-229.5 272.25,-238.75 272.25,-238.75 C272.25,-238.75 302.25,-225.25 302.25,-225.25 C302.25,-225.25 291.75,-218 291.75,-218 C291.75,-218 299.5,-215.5 299.5,-215.5 C299.5,-215.5 346.25,-223.75 346.25,-223.75 C346.25,-223.75 337.75,-229.5 337.75,-229.5 C337.75,-229.5 339.25,-233.75 339.25,-233.75 C339.25,-233.75 332.25,-238.5 332.25,-238.5 C332.25,-238.5 327.25,-243.75 327.25,-243.75 C327.25,-243.75 321.5,-250.25 321.5,-250.25 C321.5,-250.25 312.75,-252.25 312.75,-252.25 C312.75,-252.25 300.25,-257 300.25,-257 C300.25,-257 302,-262.25 302,-262.25 C302,-262.25 305.5,-265.5 305.5,-265.5 C305.5,-265.5 302,-267.75 302,-267.75 C302,-267.75 297.5,-268 297.5,-268 C297.5,-268 294,-271.75 294,-271.75 C294,-271.75 282.5,-271.25 282.5,-271.25 C282.5,-271.25 280.25,-267 280.25,-267 C280.25,-267 262.75,-266.25 262.75,-266.25 C262.75,-266.25 252.5,-280.25 252.5,-280.25 C252.5,-280.25 237,-280.75 237,-280.75 C237,-280.75 232.5,-287.75 232.5,-287.75 C232.5,-287.75 225,-292 225,-292 C225,-292 215.5,-294.5 215.5,-294.5 C215.5,-294.5 211.25,-300.5 211.25,-300.5 C211.25,-300.5 210,-310 210,-310z">
          </path>
        </g>
      </g>
    </g>
    <g fill="rgb(255,255,255)" font-size="63" font-family="IBM Plex Sans" font-style="normal" font-weight="700"
      aria-label="S" transform="matrix(0.2139900028705597,0,0,0.2261900007724762,752.8930053710938,459.3382568359375)"
      opacity="1" style="display: block;">
      <path stroke-linecap="butt" stroke-linejoin="round" stroke-miterlimit="4"
        d=" M7.18,-0.28 C9.32,-0.98 11.12,-1.95 12.57,-3.22 C14.02,-4.48 15.12,-5.99 15.88,-7.76 C16.63,-9.52 17.01,-11.46 17.01,-13.56 C17.01,-17.38 15.92,-20.34 13.73,-22.42 C11.55,-24.5 8.19,-25.9 3.65,-26.61 C3.65,-26.61 -0.69,-27.31 -0.69,-27.31 C-2.54,-27.6 -3.87,-28.08 -4.69,-28.74 C-5.51,-29.41 -5.92,-30.49 -5.92,-31.99 C-5.92,-33.32 -5.4,-34.35 -4.35,-35.1 C-3.3,-35.85 -1.7,-36.22 0.44,-36.22 C2.71,-36.22 4.59,-35.84 6.08,-35.07 C7.57,-34.3 8.84,-33.31 9.89,-32.11 C9.89,-32.11 16.25,-38.55 16.25,-38.55 C14.45,-40.57 12.28,-42.1 9.76,-43.15 C7.24,-44.2 4.33,-44.73 1.01,-44.73 C-1.6,-44.73 -3.92,-44.4 -5.95,-43.75 C-7.99,-43.1 -9.71,-42.19 -11.12,-41.01 C-12.53,-39.83 -13.61,-38.42 -14.36,-36.78 C-15.12,-35.14 -15.5,-33.33 -15.5,-31.36 C-15.5,-27.66 -14.42,-24.69 -12.25,-22.46 C-10.09,-20.23 -6.68,-18.83 -2.02,-18.24 C-2.02,-18.24 2.33,-17.68 2.33,-17.68 C4.39,-17.38 5.75,-16.83 6.43,-16.02 C7.1,-15.21 7.43,-14.2 7.43,-12.99 C7.43,-11.41 6.87,-10.14 5.73,-9.18 C4.6,-8.23 2.86,-7.75 0.5,-7.75 C-3.86,-7.75 -7.54,-9.41 -10.52,-12.74 C-10.52,-12.74 -16.82,-6.37 -16.82,-6.37 C-14.93,-4.27 -12.64,-2.56 -9.95,-1.23 C-7.27,0.09 -3.99,0.76 -0.13,0.76 C2.6,0.76 5.04,0.41 7.18,-0.28z"
        style="display: inherit;"></path>
    </g>
    <g fill="rgb(255,255,255)" font-size="63" font-family="IBM Plex Sans" font-style="normal" font-weight="700"
      aria-label="P" transform="matrix(0.2139900028705597,0,0,0.2261900007724762,844.7572021484375,426.1786804199219)"
      opacity="1" style="display: block;">
      <path stroke-linecap="butt" stroke-linejoin="round" stroke-miterlimit="4"
        d=" M-6.24,0 C-6.24,0 -6.24,-15.88 -6.24,-15.88 C-6.24,-15.88 4.98,-15.88 4.98,-15.88 C7.03,-15.88 8.88,-16.22 10.52,-16.92 C12.16,-17.61 13.56,-18.56 14.71,-19.78 C15.87,-21 16.76,-22.47 17.39,-24.19 C18.02,-25.91 18.33,-27.82 18.33,-29.92 C18.33,-31.98 18.02,-33.88 17.39,-35.63 C16.76,-37.37 15.87,-38.85 14.71,-40.07 C13.56,-41.29 12.16,-42.24 10.52,-42.93 C8.88,-43.63 7.03,-43.97 4.98,-43.97 C4.98,-43.97 -15.81,-43.97 -15.81,-43.97 C-15.81,-43.97 -15.81,0 -15.81,0 C-15.81,0 -6.24,0 -6.24,0z M-6.24,-35.66 C-6.24,-35.66 3.84,-35.66 3.84,-35.66 C5.27,-35.66 6.39,-35.29 7.21,-34.56 C8.03,-33.82 8.44,-32.74 8.44,-31.31 C8.44,-31.31 8.44,-28.54 8.44,-28.54 C8.44,-27.11 8.03,-26.03 7.21,-25.29 C6.39,-24.56 5.27,-24.19 3.84,-24.19 C3.84,-24.19 -6.24,-24.19 -6.24,-24.19 C-6.24,-24.19 -6.24,-35.66 -6.24,-35.66z"
        style="display: inherit;"></path>
    </g>
    <g fill="rgb(235,235,235)" font-size="63" font-family="IBM Plex Sans" font-style="normal" font-weight="700"
      aria-label="Sense" transform="matrix(1,0,0,1,414,328)" opacity="0.3" style="display: block;">
      <path stroke-linecap="butt" stroke-linejoin="round" stroke-miterlimit="4"
        d=" M-253.6,-17.04 C-251.46,-17.73 -249.67,-18.71 -248.22,-19.97 C-246.77,-21.23 -245.67,-22.74 -244.91,-24.51 C-244.15,-26.27 -243.78,-28.21 -243.78,-30.31 C-243.78,-34.14 -244.87,-37.09 -247.05,-39.17 C-249.24,-41.25 -252.6,-42.65 -257.13,-43.36 C-257.13,-43.36 -261.48,-44.06 -261.48,-44.06 C-263.33,-44.35 -264.66,-44.83 -265.48,-45.49 C-266.3,-46.16 -266.71,-47.24 -266.71,-48.74 C-266.71,-50.07 -266.18,-51.11 -265.13,-51.85 C-264.08,-52.6 -262.49,-52.98 -260.34,-52.98 C-258.08,-52.98 -256.2,-52.59 -254.71,-51.82 C-253.21,-51.05 -251.94,-50.07 -250.89,-48.86 C-250.89,-48.86 -244.53,-55.3 -244.53,-55.3 C-246.34,-57.32 -248.5,-58.85 -251.02,-59.9 C-253.54,-60.95 -256.46,-61.48 -259.78,-61.48 C-262.38,-61.48 -264.7,-61.15 -266.74,-60.5 C-268.78,-59.85 -270.5,-58.94 -271.9,-57.76 C-273.31,-56.58 -274.39,-55.17 -275.15,-53.53 C-275.91,-51.89 -276.28,-50.08 -276.28,-48.11 C-276.28,-44.41 -275.2,-41.44 -273.04,-39.21 C-270.88,-36.99 -267.46,-35.58 -262.8,-34.99 C-262.8,-34.99 -258.45,-34.43 -258.45,-34.43 C-256.4,-34.13 -255.03,-33.58 -254.36,-32.77 C-253.69,-31.96 -253.35,-30.95 -253.35,-29.74 C-253.35,-28.16 -253.92,-26.89 -255.05,-25.93 C-256.19,-24.98 -257.93,-24.5 -260.28,-24.5 C-264.65,-24.5 -268.32,-26.16 -271.31,-29.49 C-271.31,-29.49 -277.61,-23.12 -277.61,-23.12 C-275.72,-21.02 -273.43,-19.31 -270.74,-17.98 C-268.05,-16.66 -264.78,-15.99 -260.91,-15.99 C-258.18,-15.99 -255.75,-16.34 -253.6,-17.04z M-215.33,-17.45 C-212.96,-18.42 -211.04,-19.76 -209.57,-21.49 C-209.57,-21.49 -214.23,-27.3 -214.23,-27.3 C-215.28,-26.22 -216.41,-25.29 -217.63,-24.52 C-218.85,-23.75 -220.42,-23.37 -222.36,-23.37 C-224.88,-23.37 -226.72,-24 -227.9,-25.27 C-229.08,-26.54 -229.66,-28.26 -229.66,-30.43 C-229.66,-30.43 -229.66,-30.93 -229.66,-30.93 C-229.66,-30.93 -208.43,-30.93 -208.43,-30.93 C-208.43,-30.93 -208.43,-33.7 -208.43,-33.7 C-208.43,-35.92 -208.72,-38.05 -209.28,-40.09 C-209.85,-42.13 -210.75,-43.92 -211.99,-45.48 C-213.23,-47.03 -214.83,-48.27 -216.78,-49.2 C-218.73,-50.12 -221.07,-50.58 -223.8,-50.58 C-226.28,-50.58 -228.49,-50.17 -230.42,-49.35 C-232.35,-48.53 -233.98,-47.37 -235.3,-45.86 C-236.62,-44.34 -237.62,-42.53 -238.29,-40.41 C-238.97,-38.29 -239.3,-35.92 -239.3,-33.32 C-239.3,-30.67 -238.96,-28.28 -238.26,-26.14 C-237.57,-24 -236.54,-22.18 -235.18,-20.69 C-233.81,-19.2 -232.14,-18.04 -230.17,-17.22 C-228.19,-16.4 -225.95,-15.99 -223.43,-15.99 C-220.4,-15.99 -217.7,-16.48 -215.33,-17.45z M-219.43,-41.86 C-218.52,-40.62 -218.07,-38.99 -218.07,-36.97 C-218.07,-36.97 -218.07,-36.41 -218.07,-36.41 C-218.07,-36.41 -229.66,-36.41 -229.66,-36.41 C-229.66,-36.41 -229.66,-36.91 -229.66,-36.91 C-229.66,-38.97 -229.13,-40.62 -228.06,-41.86 C-226.99,-43.09 -225.51,-43.71 -223.62,-43.71 C-221.73,-43.71 -220.33,-43.09 -219.43,-41.86z M-192.49,-16.75 C-192.49,-16.75 -192.49,-38.17 -192.49,-38.17 C-192.49,-38.97 -192.33,-39.67 -191.99,-40.28 C-191.65,-40.89 -191.2,-41.4 -190.63,-41.82 C-190.07,-42.24 -189.43,-42.55 -188.71,-42.74 C-188,-42.93 -187.26,-43.02 -186.51,-43.02 C-184.79,-43.02 -183.59,-42.51 -182.92,-41.48 C-182.25,-40.45 -181.91,-38.86 -181.91,-36.72 C-181.91,-36.72 -181.91,-16.75 -181.91,-16.75 C-181.91,-16.75 -172.59,-16.75 -172.59,-16.75 C-172.59,-16.75 -172.59,-37.48 -172.59,-37.48 C-172.59,-41.68 -173.46,-44.91 -175.2,-47.18 C-176.94,-49.45 -179.52,-50.58 -182.92,-50.58 C-185.52,-50.58 -187.56,-49.95 -189.03,-48.69 C-190.5,-47.43 -191.53,-45.94 -192.12,-44.22 C-192.12,-44.22 -192.49,-44.22 -192.49,-44.22 C-192.49,-44.22 -192.49,-49.83 -192.49,-49.83 C-192.49,-49.83 -201.82,-49.83 -201.82,-49.83 C-201.82,-49.83 -201.82,-16.75 -201.82,-16.75 C-201.82,-16.75 -192.49,-16.75 -192.49,-16.75z M-147.23,-16.81 C-145.48,-17.36 -143.99,-18.13 -142.75,-19.11 C-141.52,-20.1 -140.56,-21.27 -139.89,-22.61 C-139.22,-23.95 -138.88,-25.42 -138.88,-27.02 C-138.88,-32.69 -142.51,-36.01 -149.78,-36.97 C-149.78,-36.97 -153.5,-37.48 -153.5,-37.48 C-154.84,-37.69 -155.75,-38.03 -156.24,-38.52 C-156.72,-39 -156.96,-39.68 -156.96,-40.56 C-156.96,-41.4 -156.63,-42.08 -155.95,-42.58 C-155.28,-43.08 -154.15,-43.34 -152.55,-43.34 C-151.16,-43.34 -149.81,-43.03 -148.49,-42.42 C-147.16,-41.81 -145.98,-40.98 -144.93,-39.93 C-144.93,-39.93 -139.57,-45.42 -139.57,-45.42 C-140.41,-46.21 -141.26,-46.94 -142.12,-47.59 C-142.99,-48.24 -143.93,-48.79 -144.96,-49.23 C-145.99,-49.67 -147.16,-50 -148.49,-50.24 C-149.81,-50.47 -151.33,-50.58 -153.05,-50.58 C-155.03,-50.58 -156.8,-50.32 -158.38,-49.79 C-159.95,-49.27 -161.3,-48.53 -162.41,-47.59 C-163.52,-46.64 -164.38,-45.51 -164.99,-44.19 C-165.6,-42.86 -165.91,-41.4 -165.91,-39.81 C-165.91,-33.93 -162.19,-30.53 -154.76,-29.6 C-154.76,-29.6 -151.16,-29.16 -151.16,-29.16 C-148.94,-28.87 -147.83,-27.94 -147.83,-26.39 C-147.83,-25.42 -148.18,-24.66 -148.9,-24.09 C-149.61,-23.52 -150.89,-23.24 -152.74,-23.24 C-154.55,-23.24 -156.16,-23.62 -157.59,-24.37 C-159.02,-25.13 -160.32,-26.16 -161.5,-27.46 C-161.5,-27.46 -166.98,-21.92 -166.98,-21.92 C-165.26,-20.03 -163.3,-18.57 -161.12,-17.54 C-158.94,-16.51 -156.25,-15.99 -153.05,-15.99 C-150.91,-15.99 -148.97,-16.27 -147.23,-16.81z M-111.07,-17.45 C-108.69,-18.42 -106.77,-19.76 -105.3,-21.49 C-105.3,-21.49 -109.96,-27.3 -109.96,-27.3 C-111.01,-26.22 -112.15,-25.29 -113.36,-24.52 C-114.58,-23.75 -116.16,-23.37 -118.09,-23.37 C-120.61,-23.37 -122.46,-24 -123.63,-25.27 C-124.81,-26.54 -125.4,-28.26 -125.4,-30.43 C-125.4,-30.43 -125.4,-30.93 -125.4,-30.93 C-125.4,-30.93 -104.17,-30.93 -104.17,-30.93 C-104.17,-30.93 -104.17,-33.7 -104.17,-33.7 C-104.17,-35.92 -104.45,-38.05 -105.02,-40.09 C-105.58,-42.13 -106.49,-43.92 -107.73,-45.48 C-108.97,-47.03 -110.56,-48.27 -112.51,-49.2 C-114.47,-50.12 -116.81,-50.58 -119.54,-50.58 C-122.02,-50.58 -124.22,-50.17 -126.15,-49.35 C-128.09,-48.53 -129.71,-47.37 -131.04,-45.86 C-132.36,-44.34 -133.36,-42.53 -134.03,-40.41 C-134.7,-38.29 -135.04,-35.92 -135.04,-33.32 C-135.04,-30.67 -134.69,-28.28 -134,-26.14 C-133.3,-24 -132.28,-22.18 -130.91,-20.69 C-129.55,-19.2 -127.88,-18.04 -125.9,-17.22 C-123.93,-16.4 -121.68,-15.99 -119.16,-15.99 C-116.14,-15.99 -113.44,-16.48 -111.07,-17.45z M-115.16,-41.86 C-114.26,-40.62 -113.81,-38.99 -113.81,-36.97 C-113.81,-36.97 -113.81,-36.41 -113.81,-36.41 C-113.81,-36.41 -125.4,-36.41 -125.4,-36.41 C-125.4,-36.41 -125.4,-36.91 -125.4,-36.91 C-125.4,-38.97 -124.86,-40.62 -123.79,-41.86 C-122.72,-43.09 -121.24,-43.71 -119.35,-43.71 C-117.46,-43.71 -116.06,-43.09 -115.16,-41.86z"
        style="display: inherit;"></path>
    </g>
    <g fill="rgb(255,255,255)" font-size="63" font-family="IBM Plex Sans" font-style="normal" font-weight="700"
      aria-label="Detect" transform="matrix(1,0,0,1,414,592)" opacity="1" style="display: block;">
      <path stroke-linecap="butt" stroke-linejoin="round" stroke-miterlimit="4"
        d=" M-275.15,-16.75 C-275.15,-16.75 -258.58,-16.75 -258.58,-16.75 C-255.68,-16.75 -253.04,-17.21 -250.64,-18.14 C-248.25,-19.06 -246.21,-20.44 -244.53,-22.26 C-242.85,-24.09 -241.55,-26.38 -240.63,-29.13 C-239.7,-31.88 -239.24,-35.08 -239.24,-38.74 C-239.24,-42.39 -239.7,-45.59 -240.63,-48.35 C-241.55,-51.1 -242.85,-53.39 -244.53,-55.21 C-246.21,-57.04 -248.25,-58.41 -250.64,-59.34 C-253.04,-60.26 -255.68,-60.72 -258.58,-60.72 C-258.58,-60.72 -275.15,-60.72 -275.15,-60.72 C-275.15,-60.72 -275.15,-16.75 -275.15,-16.75z M-265.57,-25.26 C-265.57,-25.26 -265.57,-52.22 -265.57,-52.22 C-265.57,-52.22 -258.58,-52.22 -258.58,-52.22 C-255.72,-52.22 -253.48,-51.42 -251.84,-49.83 C-250.2,-48.23 -249.38,-45.67 -249.38,-42.14 C-249.38,-42.14 -249.38,-35.34 -249.38,-35.34 C-249.38,-31.81 -250.2,-29.25 -251.84,-27.65 C-253.48,-26.05 -255.72,-25.26 -258.58,-25.26 C-258.58,-25.26 -265.57,-25.26 -265.57,-25.26z M-209.85,-17.45 C-207.48,-18.42 -205.56,-19.76 -204.09,-21.49 C-204.09,-21.49 -208.75,-27.3 -208.75,-27.3 C-209.8,-26.22 -210.93,-25.29 -212.15,-24.52 C-213.37,-23.75 -214.94,-23.37 -216.87,-23.37 C-219.39,-23.37 -221.24,-24 -222.42,-25.27 C-223.59,-26.54 -224.18,-28.26 -224.18,-30.43 C-224.18,-30.43 -224.18,-30.93 -224.18,-30.93 C-224.18,-30.93 -202.95,-30.93 -202.95,-30.93 C-202.95,-30.93 -202.95,-33.7 -202.95,-33.7 C-202.95,-35.92 -203.23,-38.05 -203.8,-40.09 C-204.37,-42.13 -205.27,-43.92 -206.51,-45.48 C-207.75,-47.03 -209.35,-48.27 -211.3,-49.2 C-213.25,-50.12 -215.59,-50.58 -218.32,-50.58 C-220.8,-50.58 -223.01,-50.17 -224.94,-49.35 C-226.87,-48.53 -228.5,-47.37 -229.82,-45.86 C-231.14,-44.34 -232.14,-42.53 -232.81,-40.41 C-233.49,-38.29 -233.82,-35.92 -233.82,-33.32 C-233.82,-30.67 -233.47,-28.28 -232.78,-26.14 C-232.09,-24 -231.06,-22.18 -229.69,-20.69 C-228.33,-19.2 -226.66,-18.04 -224.69,-17.22 C-222.71,-16.4 -220.47,-15.99 -217.95,-15.99 C-214.92,-15.99 -212.22,-16.48 -209.85,-17.45z M-213.94,-41.86 C-213.04,-40.62 -212.59,-38.99 -212.59,-36.97 C-212.59,-36.97 -212.59,-36.41 -212.59,-36.41 C-212.59,-36.41 -224.18,-36.41 -224.18,-36.41 C-224.18,-36.41 -224.18,-36.91 -224.18,-36.91 C-224.18,-38.97 -223.65,-40.62 -222.58,-41.86 C-221.5,-43.09 -220.02,-43.71 -218.13,-43.71 C-216.24,-43.71 -214.85,-43.09 -213.94,-41.86z M-179.2,-16.75 C-179.2,-16.75 -179.2,-24 -179.2,-24 C-179.2,-24 -185.25,-24 -185.25,-24 C-185.25,-24 -185.25,-42.58 -185.25,-42.58 C-185.25,-42.58 -178.7,-42.58 -178.7,-42.58 C-178.7,-42.58 -178.7,-49.83 -178.7,-49.83 C-178.7,-49.83 -185.25,-49.83 -185.25,-49.83 C-185.25,-49.83 -185.25,-58.77 -185.25,-58.77 C-185.25,-58.77 -193.63,-58.77 -193.63,-58.77 C-193.63,-58.77 -193.63,-53.35 -193.63,-53.35 C-193.63,-52.22 -193.86,-51.35 -194.32,-50.74 C-194.78,-50.13 -195.64,-49.83 -196.9,-49.83 C-196.9,-49.83 -199.23,-49.83 -199.23,-49.83 C-199.23,-49.83 -199.23,-42.58 -199.23,-42.58 C-199.23,-42.58 -194.57,-42.58 -194.57,-42.58 C-194.57,-42.58 -194.57,-26.39 -194.57,-26.39 C-194.57,-23.24 -193.74,-20.85 -192.08,-19.21 C-190.42,-17.57 -187.98,-16.75 -184.74,-16.75 C-184.74,-16.75 -179.2,-16.75 -179.2,-16.75z M-150.63,-17.45 C-148.26,-18.42 -146.34,-19.76 -144.87,-21.49 C-144.87,-21.49 -149.53,-27.3 -149.53,-27.3 C-150.58,-26.22 -151.71,-25.29 -152.93,-24.52 C-154.15,-23.75 -155.72,-23.37 -157.65,-23.37 C-160.17,-23.37 -162.02,-24 -163.2,-25.27 C-164.37,-26.54 -164.96,-28.26 -164.96,-30.43 C-164.96,-30.43 -164.96,-30.93 -164.96,-30.93 C-164.96,-30.93 -143.73,-30.93 -143.73,-30.93 C-143.73,-30.93 -143.73,-33.7 -143.73,-33.7 C-143.73,-35.92 -144.01,-38.05 -144.58,-40.09 C-145.15,-42.13 -146.05,-43.92 -147.29,-45.48 C-148.53,-47.03 -150.13,-48.27 -152.08,-49.2 C-154.03,-50.12 -156.37,-50.58 -159.1,-50.58 C-161.58,-50.58 -163.79,-50.17 -165.72,-49.35 C-167.65,-48.53 -169.28,-47.37 -170.6,-45.86 C-171.92,-44.34 -172.92,-42.53 -173.59,-40.41 C-174.27,-38.29 -174.6,-35.92 -174.6,-33.32 C-174.6,-30.67 -174.25,-28.28 -173.56,-26.14 C-172.87,-24 -171.84,-22.18 -170.47,-20.69 C-169.11,-19.2 -167.44,-18.04 -165.47,-17.22 C-163.49,-16.4 -161.25,-15.99 -158.73,-15.99 C-155.7,-15.99 -153,-16.48 -150.63,-17.45z M-154.72,-41.86 C-153.82,-40.62 -153.37,-38.99 -153.37,-36.97 C-153.37,-36.97 -153.37,-36.41 -153.37,-36.41 C-153.37,-36.41 -164.96,-36.41 -164.96,-36.41 C-164.96,-36.41 -164.96,-36.91 -164.96,-36.91 C-164.96,-38.97 -164.43,-40.62 -163.36,-41.86 C-162.28,-43.09 -160.8,-43.71 -158.91,-43.71 C-157.02,-43.71 -155.63,-43.09 -154.72,-41.86z M-115.41,-18.2 C-113.12,-19.67 -111.43,-21.98 -110.34,-25.13 C-110.34,-25.13 -117.59,-28.28 -117.59,-28.28 C-118.05,-26.81 -118.77,-25.62 -119.76,-24.72 C-120.75,-23.82 -122.08,-23.37 -123.76,-23.37 C-125.65,-23.37 -127.08,-23.97 -128.04,-25.19 C-129.01,-26.41 -129.49,-28.07 -129.49,-30.17 C-129.49,-30.17 -129.49,-36.34 -129.49,-36.34 C-129.49,-38.44 -129.01,-40.11 -128.04,-41.35 C-127.08,-42.59 -125.65,-43.21 -123.76,-43.21 C-122.12,-43.21 -120.84,-42.77 -119.92,-41.89 C-118.99,-41.01 -118.38,-39.93 -118.09,-38.67 C-118.09,-38.67 -110.53,-41.95 -110.53,-41.95 C-111.5,-44.68 -113.1,-46.8 -115.35,-48.31 C-117.6,-49.83 -120.4,-50.58 -123.76,-50.58 C-126.24,-50.58 -128.44,-50.18 -130.37,-49.38 C-132.31,-48.59 -133.92,-47.43 -135.23,-45.92 C-136.53,-44.41 -137.52,-42.59 -138.19,-40.47 C-138.86,-38.35 -139.19,-35.97 -139.19,-33.32 C-139.19,-30.67 -138.86,-28.28 -138.19,-26.14 C-137.52,-24 -136.53,-22.18 -135.23,-20.69 C-133.92,-19.2 -132.31,-18.04 -130.37,-17.22 C-128.44,-16.4 -126.24,-15.99 -123.76,-15.99 C-120.48,-15.99 -117.7,-16.73 -115.41,-18.2z M-87.72,-16.75 C-87.72,-16.75 -87.72,-24 -87.72,-24 C-87.72,-24 -93.77,-24 -93.77,-24 C-93.77,-24 -93.77,-42.58 -93.77,-42.58 C-93.77,-42.58 -87.22,-42.58 -87.22,-42.58 C-87.22,-42.58 -87.22,-49.83 -87.22,-49.83 C-87.22,-49.83 -93.77,-49.83 -93.77,-49.83 C-93.77,-49.83 -93.77,-58.77 -93.77,-58.77 C-93.77,-58.77 -102.15,-58.77 -102.15,-58.77 C-102.15,-58.77 -102.15,-53.35 -102.15,-53.35 C-102.15,-52.22 -102.38,-51.35 -102.84,-50.74 C-103.31,-50.13 -104.17,-49.83 -105.43,-49.83 C-105.43,-49.83 -107.76,-49.83 -107.76,-49.83 C-107.76,-49.83 -107.76,-42.58 -107.76,-42.58 C-107.76,-42.58 -103.1,-42.58 -103.1,-42.58 C-103.1,-42.58 -103.1,-26.39 -103.1,-26.39 C-103.1,-23.24 -102.27,-20.85 -100.61,-19.21 C-98.95,-17.57 -96.5,-16.75 -93.27,-16.75 C-93.27,-16.75 -87.72,-16.75 -87.72,-16.75z"
        style="display: inherit;"></path>
    </g>
    <g fill="rgb(255,255,255)" font-size="63" font-family="IBM Plex Sans" font-style="normal" font-weight="700"
      aria-label="Alert" transform="matrix(1,0,0,1,414,858)" opacity="0.3" style="display: block;">
      <path stroke-linecap="butt" stroke-linejoin="round" stroke-miterlimit="4"
        d=" M-238.11,-16.75 C-238.11,-16.75 -252.41,-60.72 -252.41,-60.72 C-252.41,-60.72 -264.25,-60.72 -264.25,-60.72 C-264.25,-60.72 -278.74,-16.75 -278.74,-16.75 C-278.74,-16.75 -269.04,-16.75 -269.04,-16.75 C-269.04,-16.75 -265.89,-27.21 -265.89,-27.21 C-265.89,-27.21 -251.21,-27.21 -251.21,-27.21 C-251.21,-27.21 -248.06,-16.75 -248.06,-16.75 C-248.06,-16.75 -238.11,-16.75 -238.11,-16.75z M-253.54,-35.34 C-253.54,-35.34 -263.62,-35.34 -263.62,-35.34 C-263.62,-35.34 -258.77,-52.03 -258.77,-52.03 C-258.77,-52.03 -258.45,-52.03 -258.45,-52.03 C-258.45,-52.03 -253.54,-35.34 -253.54,-35.34z M-218.39,-16.75 C-218.39,-16.75 -218.39,-24 -218.39,-24 C-218.39,-24 -222.54,-24 -222.54,-24 C-222.54,-24 -222.54,-63.37 -222.54,-63.37 C-222.54,-63.37 -231.87,-63.37 -231.87,-63.37 C-231.87,-63.37 -231.87,-25.82 -231.87,-25.82 C-231.87,-22.88 -231.12,-20.64 -229.63,-19.08 C-228.14,-17.53 -225.8,-16.75 -222.61,-16.75 C-222.61,-16.75 -218.39,-16.75 -218.39,-16.75z M-191.39,-17.45 C-189.02,-18.42 -187.1,-19.76 -185.63,-21.49 C-185.63,-21.49 -190.29,-27.3 -190.29,-27.3 C-191.34,-26.22 -192.47,-25.29 -193.69,-24.52 C-194.91,-23.75 -196.48,-23.37 -198.42,-23.37 C-200.94,-23.37 -202.78,-24 -203.96,-25.27 C-205.14,-26.54 -205.72,-28.26 -205.72,-30.43 C-205.72,-30.43 -205.72,-30.93 -205.72,-30.93 C-205.72,-30.93 -184.49,-30.93 -184.49,-30.93 C-184.49,-30.93 -184.49,-33.7 -184.49,-33.7 C-184.49,-35.92 -184.78,-38.05 -185.34,-40.09 C-185.91,-42.13 -186.81,-43.92 -188.05,-45.48 C-189.29,-47.03 -190.89,-48.27 -192.84,-49.2 C-194.79,-50.12 -197.13,-50.58 -199.86,-50.58 C-202.34,-50.58 -204.55,-50.17 -206.48,-49.35 C-208.41,-48.53 -210.04,-47.37 -211.36,-45.86 C-212.68,-44.34 -213.68,-42.53 -214.35,-40.41 C-215.03,-38.29 -215.36,-35.92 -215.36,-33.32 C-215.36,-30.67 -215.02,-28.28 -214.32,-26.14 C-213.63,-24 -212.6,-22.18 -211.24,-20.69 C-209.87,-19.2 -208.2,-18.04 -206.23,-17.22 C-204.25,-16.4 -202.01,-15.99 -199.49,-15.99 C-196.46,-15.99 -193.76,-16.48 -191.39,-17.45z M-195.49,-41.86 C-194.58,-40.62 -194.13,-38.99 -194.13,-36.97 C-194.13,-36.97 -194.13,-36.41 -194.13,-36.41 C-194.13,-36.41 -205.72,-36.41 -205.72,-36.41 C-205.72,-36.41 -205.72,-36.91 -205.72,-36.91 C-205.72,-38.97 -205.19,-40.62 -204.12,-41.86 C-203.05,-43.09 -201.57,-43.71 -199.68,-43.71 C-197.79,-43.71 -196.39,-43.09 -195.49,-41.86z M-168.55,-16.75 C-168.55,-16.75 -168.55,-36.09 -168.55,-36.09 C-168.55,-38.02 -167.89,-39.35 -166.57,-40.06 C-165.25,-40.77 -163.22,-41.13 -160.49,-41.13 C-160.49,-41.13 -158.16,-41.13 -158.16,-41.13 C-158.16,-41.13 -158.16,-49.83 -158.16,-49.83 C-158.16,-49.83 -159.8,-49.83 -159.8,-49.83 C-161.1,-49.83 -162.23,-49.63 -163.2,-49.23 C-164.16,-48.83 -164.99,-48.29 -165.69,-47.62 C-166.38,-46.95 -166.94,-46.18 -167.36,-45.32 C-167.78,-44.46 -168.07,-43.57 -168.24,-42.64 C-168.24,-42.64 -168.55,-42.64 -168.55,-42.64 C-168.55,-42.64 -168.55,-49.83 -168.55,-49.83 C-168.55,-49.83 -177.88,-49.83 -177.88,-49.83 C-177.88,-49.83 -177.88,-16.75 -177.88,-16.75 C-177.88,-16.75 -168.55,-16.75 -168.55,-16.75z M-135.29,-16.75 C-135.29,-16.75 -135.29,-24 -135.29,-24 C-135.29,-24 -141.34,-24 -141.34,-24 C-141.34,-24 -141.34,-42.58 -141.34,-42.58 C-141.34,-42.58 -134.79,-42.58 -134.79,-42.58 C-134.79,-42.58 -134.79,-49.83 -134.79,-49.83 C-134.79,-49.83 -141.34,-49.83 -141.34,-49.83 C-141.34,-49.83 -141.34,-58.77 -141.34,-58.77 C-141.34,-58.77 -149.72,-58.77 -149.72,-58.77 C-149.72,-58.77 -149.72,-53.35 -149.72,-53.35 C-149.72,-52.22 -149.95,-51.35 -150.41,-50.74 C-150.87,-50.13 -151.73,-49.83 -152.99,-49.83 C-152.99,-49.83 -155.32,-49.83 -155.32,-49.83 C-155.32,-49.83 -155.32,-42.58 -155.32,-42.58 C-155.32,-42.58 -150.66,-42.58 -150.66,-42.58 C-150.66,-42.58 -150.66,-26.39 -150.66,-26.39 C-150.66,-23.24 -149.83,-20.85 -148.17,-19.21 C-146.51,-17.57 -144.07,-16.75 -140.83,-16.75 C-140.83,-16.75 -135.29,-16.75 -135.29,-16.75z"
        style="display: inherit;"></path>
    </g>
    <g transform="matrix(1,0,0,1,960,540)" opacity="1" style="display: block;">
      <g opacity="1" transform="matrix(1,0,0,1,0,0)">
        <path stroke-linecap="butt" stroke-linejoin="miter" fill-opacity="0" stroke-miterlimit="4"
          stroke="rgb(255,255,255)" stroke-opacity="1" stroke-width="2"
          d=" M-201,-53 C-201,-53 -212,-194 -132,-304 C-52,-414 52,-466 52,-466"></path>
      </g>
    </g>
    <g transform="matrix(1.0197999477386475,0,0,1.1146999597549438,960,540)" opacity="1" style="display: block;">
      <g opacity="1" transform="matrix(1,0,0,1,0,0)">
        <path stroke-linecap="butt" stroke-linejoin="miter" fill-opacity="0" stroke-miterlimit="4"
          stroke="rgb(255,255,255)" stroke-opacity="1" stroke-width="2" d="M0 0"></path>
      </g>
    </g>
    <g transform="matrix(1,0,0,1,960,540)" opacity="1" style="display: block;">
      <g opacity="1" transform="matrix(1,0,0,1,1,0)">
        <path stroke-linecap="butt" stroke-linejoin="miter" fill-opacity="0" stroke-miterlimit="4"
          stroke="rgb(255,255,255)" stroke-opacity="1" stroke-width="2"
          d=" M-111.25,-27.75 C-111.25,-27.75 -112.1719970703125,-51.143001556396484 -111.89600372314453,-84.39900207519531">
        </path>
      </g>
    </g>
    <g transform="matrix(1,0,0,1,960,540)" opacity="1" style="display: block;">
      <g opacity="1" transform="matrix(1,0,0,1,0,0)">
        <path stroke-linecap="butt" stroke-linejoin="miter" fill-opacity="0" stroke-miterlimit="4"
          stroke="rgb(255,255,255)" stroke-opacity="1" stroke-width="2" d="M0 0"></path>
      </g>
    </g>
    <g fill="rgb(255,255,255)" stroke="rgb(0,0,0)" stroke-width="1" font-size="27" font-family="OCR A Extended"
      font-style="normal" font-weight="400" aria-label="EXCVBUOWFT" transform="matrix(1,0,0,1,1019,84)" opacity="1"
      style="display: block;">
      <path stroke-linecap="butt" stroke-linejoin="round" stroke-miterlimit="4"
        d=" M13.57,-15.61 C13.8,-15.83 13.91,-16.09 13.91,-16.39 C13.91,-16.69 13.8,-16.96 13.57,-17.18 C13.35,-17.41 13.08,-17.52 12.77,-17.52 C12.77,-17.52 2.73,-17.52 2.73,-17.52 C2.73,-17.52 2.73,0 2.73,0 C2.73,0 12.77,0 12.77,0 C13.08,0 13.35,-0.11 13.57,-0.32 C13.8,-0.54 13.91,-0.8 13.91,-1.11 C13.91,-1.42 13.8,-1.68 13.58,-1.89 C13.36,-2.11 13.1,-2.21 12.8,-2.21 C12.8,-2.21 4.94,-2.21 4.94,-2.21 C4.94,-2.21 4.94,-7.65 4.94,-7.65 C4.94,-7.65 8.32,-7.65 8.32,-7.65 C8.63,-7.65 8.89,-7.76 9.1,-7.98 C9.32,-8.2 9.43,-8.46 9.43,-8.78 C9.43,-9.08 9.32,-9.34 9.1,-9.56 C8.88,-9.78 8.62,-9.89 8.32,-9.89 C8.32,-9.89 4.94,-9.89 4.94,-9.89 C4.94,-9.89 4.94,-15.28 4.94,-15.28 C4.94,-15.28 12.77,-15.28 12.77,-15.28 C13.08,-15.28 13.35,-15.39 13.57,-15.61z"
        transform="matrix(1,0,0,1,0,0)" opacity="1" style="display: inherit;"></path>
      <path stroke-linecap="butt" stroke-linejoin="round" stroke-miterlimit="4"
        d=" M12.02,-0.53 C12.23,-0.18 12.55,0 12.98,0 C13.29,0 13.55,-0.1 13.77,-0.31 C13.99,-0.52 14.09,-0.78 14.09,-1.1 C14.09,-1.3 14.04,-1.49 13.93,-1.66 C13.93,-1.66 9.8,-8.75 9.8,-8.75 C9.8,-8.75 13.96,-15.83 13.96,-15.83 C14.08,-16.03 14.13,-16.23 14.13,-16.43 C14.13,-16.73 14.02,-16.99 13.79,-17.2 C13.56,-17.41 13.29,-17.52 12.98,-17.52 C12.58,-17.52 12.27,-17.34 12.05,-16.97 C12.05,-16.97 8.53,-11 8.53,-11 C8.53,-11 4.96,-16.99 4.96,-16.99 C4.76,-17.34 4.45,-17.52 4.02,-17.52 C3.73,-17.52 3.47,-17.41 3.26,-17.2 C3.04,-16.98 2.93,-16.73 2.93,-16.45 C2.93,-16.22 3.01,-15.97 3.16,-15.7 C3.16,-15.7 7.21,-8.76 7.21,-8.76 C7.21,-8.76 3.09,-1.74 3.09,-1.74 C2.95,-1.52 2.89,-1.31 2.89,-1.09 C2.89,-0.82 3,-0.57 3.22,-0.34 C3.45,-0.11 3.72,0 4.03,0 C4.45,0 4.77,-0.18 4.97,-0.53 C4.97,-0.53 8.51,-6.55 8.51,-6.55 C8.51,-6.55 12.02,-0.53 12.02,-0.53z"
        transform="matrix(1,0,0,1,16.307998657226562,0)" opacity="1" style="display: inherit;"></path>
      <path stroke-linecap="butt" stroke-linejoin="round" stroke-miterlimit="4"
        d=" M7.72,-2.91 C7.72,-2.91 5.38,-7.42 5.38,-7.42 C5.17,-7.82 5.06,-8.27 5.06,-8.79 C5.06,-9.29 5.16,-9.71 5.35,-10.07 C5.35,-10.07 7.81,-14.66 7.81,-14.66 C8.03,-15.07 8.31,-15.28 8.66,-15.28 C8.66,-15.28 12.88,-15.28 12.88,-15.28 C13.19,-15.28 13.45,-15.39 13.66,-15.62 C13.88,-15.84 13.99,-16.11 13.99,-16.41 C13.99,-16.71 13.88,-16.97 13.66,-17.19 C13.45,-17.41 13.19,-17.52 12.88,-17.52 C12.88,-17.52 8.5,-17.52 8.5,-17.52 C8.02,-17.52 7.52,-17.35 7,-17 C6.48,-16.65 6.1,-16.25 5.85,-15.79 C5.85,-15.79 3.27,-10.9 3.27,-10.9 C2.94,-10.3 2.78,-9.58 2.78,-8.75 C2.78,-8.01 2.95,-7.28 3.3,-6.57 C3.3,-6.57 5.85,-1.62 5.85,-1.62 C6.07,-1.21 6.46,-0.83 7.03,-0.5 C7.59,-0.17 8.13,0 8.66,0 C8.66,0 12.8,0 12.8,0 C13.11,0 13.37,-0.11 13.6,-0.32 C13.82,-0.54 13.93,-0.8 13.93,-1.11 C13.93,-1.42 13.82,-1.68 13.6,-1.89 C13.37,-2.11 13.11,-2.21 12.8,-2.21 C12.8,-2.21 8.8,-2.21 8.8,-2.21 C8.3,-2.21 7.94,-2.45 7.72,-2.91z"
        transform="matrix(1,0,0,1,32.61600112915039,0)" opacity="1" style="display: inherit;"></path>
      <path stroke-linecap="butt" stroke-linejoin="round" stroke-miterlimit="4"
        d=" M13.61,-17.19 C13.4,-17.41 13.13,-17.52 12.83,-17.52 C12.52,-17.52 12.25,-17.41 12.04,-17.19 C11.82,-16.97 11.71,-16.7 11.71,-16.39 C11.71,-16.39 11.71,-12.75 11.71,-12.75 C11.71,-12.75 8.35,-4.18 8.35,-4.18 C8.35,-4.18 4.97,-12.78 4.97,-12.78 C4.97,-12.78 4.97,-16.39 4.97,-16.39 C4.97,-16.7 4.87,-16.97 4.65,-17.19 C4.44,-17.41 4.17,-17.52 3.87,-17.52 C3.56,-17.52 3.29,-17.41 3.08,-17.19 C2.86,-16.97 2.76,-16.7 2.76,-16.39 C2.76,-16.39 2.76,-12.31 2.76,-12.31 C2.76,-12.31 7.24,-0.83 7.24,-0.83 C7.46,-0.28 7.83,0 8.34,0 C8.83,0 9.19,-0.28 9.42,-0.83 C9.42,-0.83 13.93,-12.31 13.93,-12.31 C13.93,-12.31 13.93,-16.39 13.93,-16.39 C13.93,-16.7 13.83,-16.97 13.61,-17.19z"
        transform="matrix(1,0,0,1,48.92399978637695,0)" opacity="1" style="display: inherit;"></path>
      <path stroke-linecap="butt" stroke-linejoin="round" stroke-miterlimit="4"
        d=" M12.37,-8.78 C13.38,-9.7 13.88,-10.82 13.88,-12.13 C13.88,-12.13 13.88,-13.07 13.88,-13.07 C13.88,-14.3 13.45,-15.35 12.58,-16.22 C11.72,-17.09 10.67,-17.52 9.45,-17.52 C9.45,-17.52 2.68,-17.52 2.68,-17.52 C2.68,-17.52 2.68,0 2.68,0 C2.68,0 9.45,0 9.45,0 C10.67,0 11.72,-0.44 12.58,-1.31 C13.45,-2.19 13.88,-3.23 13.88,-4.46 C13.88,-4.46 13.88,-5.43 13.88,-5.43 C13.88,-6.72 13.38,-7.84 12.37,-8.78z M10.96,-10.59 C10.52,-10.16 10,-9.94 9.4,-9.94 C9.4,-9.94 4.89,-9.94 4.89,-9.94 C4.89,-9.94 4.89,-15.31 4.89,-15.31 C4.89,-15.31 9.4,-15.31 9.4,-15.31 C10.01,-15.31 10.53,-15.09 10.96,-14.65 C11.4,-14.21 11.61,-13.68 11.61,-13.07 C11.61,-13.07 11.61,-12.16 11.61,-12.16 C11.61,-11.55 11.39,-11.03 10.96,-10.59z M10.96,-2.89 C10.52,-2.46 10,-2.24 9.4,-2.24 C9.4,-2.24 4.92,-2.24 4.92,-2.24 C4.92,-2.24 4.92,-7.62 4.92,-7.62 C4.92,-7.62 9.4,-7.62 9.4,-7.62 C10.01,-7.62 10.53,-7.4 10.96,-6.96 C11.4,-6.52 11.61,-5.99 11.61,-5.38 C11.61,-5.38 11.61,-4.46 11.61,-4.46 C11.61,-3.85 11.39,-3.33 10.96,-2.89z"
        transform="matrix(1,0,0,1,65.23200225830078,0)" opacity="1" style="display: inherit;"></path>
      <path stroke-linecap="butt" stroke-linejoin="round" stroke-miterlimit="4"
        d=" M3.68,-0.98 C4.33,-0.33 5.11,0 6.02,0 C6.02,0 10.56,0 10.56,0 C11.47,0 12.25,-0.33 12.9,-0.99 C13.55,-1.65 13.88,-2.43 13.88,-3.35 C13.88,-3.35 13.88,-16.39 13.88,-16.39 C13.88,-16.7 13.77,-16.97 13.56,-17.19 C13.34,-17.41 13.08,-17.52 12.77,-17.52 C12.47,-17.52 12.21,-17.41 11.99,-17.19 C11.77,-16.97 11.67,-16.7 11.67,-16.39 C11.67,-16.39 11.67,-3.32 11.67,-3.32 C11.67,-3.02 11.56,-2.77 11.34,-2.56 C11.13,-2.35 10.87,-2.24 10.56,-2.24 C10.56,-2.24 6.02,-2.24 6.02,-2.24 C5.73,-2.24 5.47,-2.35 5.25,-2.56 C5.03,-2.78 4.92,-3.03 4.92,-3.32 C4.92,-3.32 4.92,-16.41 4.92,-16.41 C4.92,-16.71 4.81,-16.97 4.59,-17.19 C4.37,-17.41 4.11,-17.52 3.81,-17.52 C3.51,-17.52 3.25,-17.41 3.03,-17.18 C2.81,-16.96 2.7,-16.69 2.7,-16.39 C2.7,-16.39 2.7,-3.32 2.7,-3.32 C2.7,-2.41 3.03,-1.63 3.68,-0.98z"
        transform="matrix(1,0,0,1,81.54000091552734,0)" opacity="1" style="display: inherit;"></path>
      <path stroke-linecap="butt" stroke-linejoin="round" stroke-miterlimit="4"
        d=" M8.29,-17.52 C7.08,-17.52 6.2,-16.98 5.64,-15.9 C5.64,-15.9 3.19,-10.93 3.19,-10.93 C2.86,-10.28 2.7,-9.54 2.7,-8.73 C2.7,-7.91 2.86,-7.18 3.19,-6.54 C3.19,-6.54 5.64,-1.62 5.64,-1.62 C5.88,-1.16 6.23,-0.77 6.7,-0.46 C7.17,-0.15 7.7,0 8.29,0 C9.53,0 10.41,-0.54 10.93,-1.62 C10.93,-1.62 13.37,-6.54 13.37,-6.54 C13.71,-7.22 13.88,-7.95 13.88,-8.73 C13.88,-9.52 13.71,-10.25 13.37,-10.93 C13.37,-10.93 10.93,-15.9 10.93,-15.9 C10.4,-16.98 9.52,-17.52 8.29,-17.52z M8.29,-15.31 C8.61,-15.31 8.84,-15.13 8.99,-14.79 C8.99,-14.79 11.31,-10.13 11.31,-10.13 C11.53,-9.69 11.64,-9.24 11.64,-8.75 C11.64,-8.3 11.53,-7.84 11.31,-7.37 C11.31,-7.37 8.94,-2.65 8.94,-2.65 C8.79,-2.36 8.57,-2.21 8.29,-2.21 C7.97,-2.21 7.74,-2.36 7.62,-2.65 C7.62,-2.65 5.26,-7.37 5.26,-7.37 C5.05,-7.81 4.94,-8.27 4.94,-8.75 C4.94,-9.2 5.05,-9.66 5.26,-10.13 C5.26,-10.13 7.55,-14.79 7.55,-14.79 C7.73,-15.13 7.98,-15.31 8.29,-15.31z"
        transform="matrix(1,0,0,1,97.8479995727539,0)" opacity="1" style="display: inherit;"></path>
      <path stroke-linecap="butt" stroke-linejoin="round" stroke-miterlimit="4"
        d=" M9.1,-11.45 C8.89,-11.67 8.63,-11.77 8.32,-11.77 C8.01,-11.77 7.75,-11.67 7.53,-11.45 C7.32,-11.23 7.21,-10.97 7.21,-10.67 C7.21,-10.67 7.21,-3.32 7.21,-3.32 C7.21,-3.32 6.51,-2.21 6.51,-2.21 C6.51,-2.21 5.56,-2.21 5.56,-2.21 C5.56,-2.21 4.92,-3.27 4.92,-3.27 C4.92,-3.27 4.92,-16.39 4.92,-16.39 C4.92,-16.69 4.81,-16.96 4.59,-17.18 C4.38,-17.41 4.13,-17.52 3.84,-17.52 C3.53,-17.52 3.26,-17.41 3.04,-17.18 C2.81,-16.96 2.7,-16.69 2.7,-16.39 C2.7,-16.39 2.7,-2.97 2.7,-2.97 C2.7,-2.76 2.79,-2.5 2.97,-2.21 C2.97,-2.21 3.92,-0.62 3.92,-0.62 C4.16,-0.21 4.57,0 5.13,0 C5.13,0 7.08,0 7.08,0 C7.69,0 8.09,-0.3 8.29,-0.9 C8.48,-0.3 8.9,0 9.56,0 C9.56,0 11.64,0 11.64,0 C12.07,0 12.39,-0.19 12.6,-0.57 C12.6,-0.57 13.63,-2.27 13.63,-2.27 C13.82,-2.57 13.91,-2.8 13.91,-2.97 C13.91,-2.97 13.91,-16.41 13.91,-16.41 C13.91,-16.71 13.8,-16.97 13.58,-17.19 C13.36,-17.41 13.1,-17.52 12.8,-17.52 C12.49,-17.52 12.23,-17.41 12,-17.18 C11.78,-16.96 11.67,-16.69 11.67,-16.39 C11.67,-16.39 11.67,-3.32 11.67,-3.32 C11.67,-3.32 11,-2.21 11,-2.21 C11,-2.21 10.07,-2.21 10.07,-2.21 C10.07,-2.21 9.43,-3.3 9.43,-3.3 C9.43,-3.3 9.43,-10.67 9.43,-10.67 C9.43,-10.97 9.32,-11.23 9.1,-11.45z"
        transform="matrix(1,0,0,1,114.15599822998047,0)" opacity="1" style="display: inherit;"></path>
      <path stroke-linecap="butt" stroke-linejoin="round" stroke-miterlimit="4"
        d=" M3.05,-0.32 C3.27,-0.11 3.53,0 3.84,0 C4.14,0 4.41,-0.11 4.62,-0.32 C4.84,-0.54 4.94,-0.8 4.94,-1.11 C4.94,-1.11 4.94,-9.58 4.94,-9.58 C4.94,-9.58 10.56,-9.58 10.56,-9.58 C10.87,-9.58 11.13,-9.69 11.34,-9.91 C11.56,-10.12 11.67,-10.38 11.67,-10.69 C11.67,-11 11.56,-11.26 11.34,-11.48 C11.13,-11.69 10.87,-11.8 10.56,-11.8 C10.56,-11.8 4.94,-11.8 4.94,-11.8 C4.94,-11.8 4.94,-15.28 4.94,-15.28 C4.94,-15.28 12.77,-15.28 12.77,-15.28 C13.07,-15.28 13.33,-15.39 13.55,-15.62 C13.77,-15.84 13.88,-16.11 13.88,-16.41 C13.88,-16.71 13.77,-16.97 13.55,-17.19 C13.32,-17.41 13.06,-17.52 12.77,-17.52 C12.77,-17.52 2.73,-17.52 2.73,-17.52 C2.73,-17.52 2.73,-1.11 2.73,-1.11 C2.73,-0.8 2.84,-0.54 3.05,-0.32z"
        transform="matrix(1,0,0,1,130.46400451660156,0)" opacity="1" style="display: inherit;"></path>
      <path stroke-linecap="butt" stroke-linejoin="round" stroke-miterlimit="4"
        d=" M3.03,-13.72 C3.24,-13.5 3.5,-13.39 3.81,-13.39 C4.12,-13.39 4.38,-13.5 4.59,-13.72 C4.81,-13.93 4.92,-14.19 4.92,-14.5 C4.92,-14.5 4.92,-15.28 4.92,-15.28 C4.92,-15.28 7.16,-15.28 7.16,-15.28 C7.16,-15.28 7.16,-1.11 7.16,-1.11 C7.16,-0.8 7.27,-0.54 7.49,-0.32 C7.71,-0.11 7.98,0 8.29,0 C8.59,0 8.85,-0.11 9.07,-0.32 C9.29,-0.54 9.4,-0.8 9.4,-1.11 C9.4,-1.11 9.4,-15.28 9.4,-15.28 C9.4,-15.28 11.64,-15.28 11.64,-15.28 C11.64,-15.28 11.64,-14.48 11.64,-14.48 C11.64,-14.18 11.75,-13.92 11.98,-13.7 C12.2,-13.48 12.47,-13.37 12.77,-13.37 C13.07,-13.37 13.33,-13.48 13.55,-13.69 C13.77,-13.91 13.88,-14.17 13.88,-14.48 C13.88,-14.48 13.88,-17.49 13.88,-17.49 C13.88,-17.49 2.7,-17.49 2.7,-17.49 C2.7,-17.49 2.7,-14.5 2.7,-14.5 C2.7,-14.19 2.81,-13.93 3.03,-13.72z"
        transform="matrix(1,0,0,1,146.77200317382812,0)" opacity="1" style="display: inherit;"></path>
    </g>
    <g transform="matrix(1,0,0,1,960,540)" opacity="1" style="display: block;">
      <g opacity="1" transform="matrix(1,0,0,1,0,0)">
        <path stroke-linecap="butt" stroke-linejoin="miter" fill-opacity="0" stroke-miterlimit="4"
          stroke="rgb(255,255,255)" stroke-opacity="1" stroke-width="2" d="M0 0"></path>
      </g>
    </g>
    <g class="png" transform="matrix(0.07699999958276749,0,0,0.07699999958276749,1777.5,940.5)" opacity="1"
      style="display: block;">
      <image width="1000px" height="1000px" preserveAspectRatio="xMidYMid slice" xlink:href="images/img_0.png"></image>
    </g>
    <g fill="rgb(255,255,255)" stroke="rgb(0,0,0)" stroke-width="1" font-size="34" font-family="IBM Plex Sans"
      font-style="normal" font-weight="700" aria-label="OpenEEW" transform="matrix(1,0,0,1,1767.5,1007.5)" opacity="1"
      style="display: block;">
      <path stroke-linecap="butt" stroke-linejoin="round" stroke-miterlimit="4"
        d=" M-137.58,-21.87 C-136.29,-22.4 -135.19,-23.17 -134.28,-24.2 C-133.37,-25.23 -132.67,-26.52 -132.17,-28.05 C-131.67,-29.58 -131.42,-31.35 -131.42,-33.37 C-131.42,-35.38 -131.67,-37.16 -132.17,-38.69 C-132.67,-40.22 -133.37,-41.5 -134.28,-42.53 C-135.19,-43.56 -136.29,-44.34 -137.58,-44.86 C-138.87,-45.38 -140.3,-45.64 -141.86,-45.64 C-143.43,-45.64 -144.85,-45.38 -146.15,-44.86 C-147.44,-44.34 -148.54,-43.56 -149.44,-42.53 C-150.35,-41.5 -151.05,-40.22 -151.55,-38.69 C-152.05,-37.16 -152.3,-35.38 -152.3,-33.37 C-152.3,-31.35 -152.05,-29.58 -151.55,-28.05 C-151.05,-26.52 -150.35,-25.23 -149.44,-24.2 C-148.54,-23.17 -147.44,-22.4 -146.15,-21.87 C-144.85,-21.35 -143.43,-21.09 -141.86,-21.09 C-140.3,-21.09 -138.87,-21.35 -137.58,-21.87z M-145.52,-27.21 C-146.39,-28.23 -146.83,-29.69 -146.83,-31.6 C-146.83,-31.6 -146.83,-35.13 -146.83,-35.13 C-146.83,-37.04 -146.39,-38.5 -145.52,-39.52 C-144.64,-40.54 -143.43,-41.05 -141.86,-41.05 C-140.3,-41.05 -139.08,-40.54 -138.21,-39.52 C-137.33,-38.5 -136.9,-37.04 -136.9,-35.13 C-136.9,-35.13 -136.9,-31.6 -136.9,-31.6 C-136.9,-29.69 -137.33,-28.23 -138.21,-27.21 C-139.08,-26.19 -140.3,-25.68 -141.86,-25.68 C-143.43,-25.68 -144.64,-26.19 -145.52,-27.21z M-127.38,-14.7 C-127.38,-14.7 -122.35,-14.7 -122.35,-14.7 C-122.35,-14.7 -122.35,-24.49 -122.35,-24.49 C-122.35,-24.49 -122.18,-24.49 -122.18,-24.49 C-122.04,-24.02 -121.82,-23.57 -121.53,-23.15 C-121.24,-22.73 -120.88,-22.37 -120.46,-22.06 C-120.04,-21.76 -119.57,-21.52 -119.05,-21.35 C-118.53,-21.18 -117.97,-21.09 -117.38,-21.09 C-115.12,-21.09 -113.4,-21.89 -112.25,-23.49 C-111.09,-25.09 -110.51,-27.4 -110.51,-30.44 C-110.51,-33.48 -111.09,-35.79 -112.25,-37.38 C-113.4,-38.96 -115.12,-39.76 -117.38,-39.76 C-118.54,-39.76 -119.56,-39.44 -120.46,-38.81 C-121.35,-38.17 -121.93,-37.36 -122.18,-36.36 C-122.18,-36.36 -122.35,-36.36 -122.35,-36.36 C-122.35,-36.36 -122.35,-39.35 -122.35,-39.35 C-122.35,-39.35 -127.38,-39.35 -127.38,-39.35 C-127.38,-39.35 -127.38,-14.7 -127.38,-14.7z M-121.41,-25.87 C-122.03,-26.33 -122.35,-26.97 -122.35,-27.79 C-122.35,-27.79 -122.35,-33.06 -122.35,-33.06 C-122.35,-33.88 -122.03,-34.52 -121.41,-34.98 C-120.79,-35.45 -120,-35.68 -119.05,-35.68 C-118.1,-35.68 -117.31,-35.34 -116.68,-34.68 C-116.06,-34.01 -115.75,-33.11 -115.75,-31.97 C-115.75,-31.97 -115.75,-28.88 -115.75,-28.88 C-115.75,-27.74 -116.06,-26.84 -116.68,-26.18 C-117.31,-25.51 -118.1,-25.17 -119.05,-25.17 C-120,-25.17 -120.79,-25.4 -121.41,-25.87z M-94.89,-21.88 C-93.61,-22.4 -92.57,-23.13 -91.78,-24.06 C-91.78,-24.06 -94.3,-27.19 -94.3,-27.19 C-94.86,-26.61 -95.47,-26.11 -96.13,-25.69 C-96.79,-25.28 -97.64,-25.07 -98.68,-25.07 C-100.04,-25.07 -101.04,-25.41 -101.67,-26.1 C-102.31,-26.78 -102.63,-27.71 -102.63,-28.88 C-102.63,-28.88 -102.63,-29.15 -102.63,-29.15 C-102.63,-29.15 -91.17,-29.15 -91.17,-29.15 C-91.17,-29.15 -91.17,-30.65 -91.17,-30.65 C-91.17,-31.85 -91.32,-33 -91.63,-34.1 C-91.93,-35.2 -92.42,-36.17 -93.09,-37 C-93.76,-37.84 -94.62,-38.51 -95.67,-39.01 C-96.73,-39.51 -97.99,-39.76 -99.46,-39.76 C-100.8,-39.76 -101.99,-39.54 -103.03,-39.1 C-104.08,-38.65 -104.96,-38.02 -105.67,-37.21 C-106.38,-36.39 -106.92,-35.41 -107.28,-34.27 C-107.65,-33.12 -107.83,-31.85 -107.83,-30.44 C-107.83,-29.01 -107.64,-27.72 -107.27,-26.57 C-106.89,-25.41 -106.34,-24.43 -105.6,-23.63 C-104.86,-22.82 -103.96,-22.2 -102.9,-21.76 C-101.83,-21.31 -100.62,-21.09 -99.26,-21.09 C-97.63,-21.09 -96.17,-21.35 -94.89,-21.88z M-97.1,-35.05 C-96.61,-34.38 -96.37,-33.5 -96.37,-32.41 C-96.37,-32.41 -96.37,-32.11 -96.37,-32.11 C-96.37,-32.11 -102.63,-32.11 -102.63,-32.11 C-102.63,-32.11 -102.63,-32.38 -102.63,-32.38 C-102.63,-33.49 -102.34,-34.38 -101.76,-35.05 C-101.18,-35.72 -100.38,-36.05 -99.36,-36.05 C-98.34,-36.05 -97.59,-35.72 -97.1,-35.05z M-82.57,-21.5 C-82.57,-21.5 -82.57,-33.06 -82.57,-33.06 C-82.57,-33.49 -82.48,-33.87 -82.29,-34.2 C-82.11,-34.53 -81.87,-34.81 -81.56,-35.03 C-81.26,-35.26 -80.91,-35.42 -80.53,-35.53 C-80.14,-35.63 -79.74,-35.68 -79.34,-35.68 C-78.41,-35.68 -77.76,-35.4 -77.4,-34.85 C-77.04,-34.29 -76.85,-33.43 -76.85,-32.28 C-76.85,-32.28 -76.85,-21.5 -76.85,-21.5 C-76.85,-21.5 -71.82,-21.5 -71.82,-21.5 C-71.82,-21.5 -71.82,-32.69 -71.82,-32.69 C-71.82,-34.95 -72.29,-36.7 -73.23,-37.92 C-74.17,-39.15 -75.56,-39.76 -77.4,-39.76 C-78.8,-39.76 -79.9,-39.42 -80.7,-38.74 C-81.49,-38.06 -82.04,-37.25 -82.36,-36.32 C-82.36,-36.32 -82.57,-36.32 -82.57,-36.32 C-82.57,-36.32 -82.57,-39.35 -82.57,-39.35 C-82.57,-39.35 -87.6,-39.35 -87.6,-39.35 C-87.6,-39.35 -87.6,-21.5 -87.6,-21.5 C-87.6,-21.5 -82.57,-21.5 -82.57,-21.5z M-50.91,-21.5 C-50.91,-21.5 -50.91,-26.09 -50.91,-26.09 C-50.91,-26.09 -61.89,-26.09 -61.89,-26.09 C-61.89,-26.09 -61.89,-31.22 -61.89,-31.22 C-61.89,-31.22 -52.48,-31.22 -52.48,-31.22 C-52.48,-31.22 -52.48,-35.81 -52.48,-35.81 C-52.48,-35.81 -61.89,-35.81 -61.89,-35.81 C-61.89,-35.81 -61.89,-40.64 -61.89,-40.64 C-61.89,-40.64 -50.91,-40.64 -50.91,-40.64 C-50.91,-40.64 -50.91,-45.23 -50.91,-45.23 C-50.91,-45.23 -67.06,-45.23 -67.06,-45.23 C-67.06,-45.23 -67.06,-21.5 -67.06,-21.5 C-67.06,-21.5 -50.91,-21.5 -50.91,-21.5z M-30.27,-21.5 C-30.27,-21.5 -30.27,-26.09 -30.27,-26.09 C-30.27,-26.09 -41.26,-26.09 -41.26,-26.09 C-41.26,-26.09 -41.26,-31.22 -41.26,-31.22 C-41.26,-31.22 -31.84,-31.22 -31.84,-31.22 C-31.84,-31.22 -31.84,-35.81 -31.84,-35.81 C-31.84,-35.81 -41.26,-35.81 -41.26,-35.81 C-41.26,-35.81 -41.26,-40.64 -41.26,-40.64 C-41.26,-40.64 -30.27,-40.64 -30.27,-40.64 C-30.27,-40.64 -30.27,-45.23 -30.27,-45.23 C-30.27,-45.23 -46.42,-45.23 -46.42,-45.23 C-46.42,-45.23 -46.42,-21.5 -46.42,-21.5 C-46.42,-21.5 -30.27,-21.5 -30.27,-21.5z M-16.13,-21.5 C-16.13,-21.5 -13.14,-34.35 -13.14,-34.35 C-13.14,-34.35 -11.95,-39.55 -11.95,-39.55 C-11.95,-39.55 -11.85,-39.55 -11.85,-39.55 C-11.85,-39.55 -10.69,-34.35 -10.69,-34.35 C-10.69,-34.35 -7.7,-21.5 -7.7,-21.5 C-7.7,-21.5 -1.82,-21.5 -1.82,-21.5 C-1.82,-21.5 3.69,-45.23 3.69,-45.23 C3.69,-45.23 -1.2,-45.23 -1.2,-45.23 C-1.2,-45.23 -3.48,-33.84 -3.48,-33.84 C-3.48,-33.84 -4.74,-27.25 -4.74,-27.25 C-4.74,-27.25 -4.84,-27.25 -4.84,-27.25 C-4.84,-27.25 -6.3,-33.84 -6.3,-33.84 C-6.3,-33.84 -8.96,-45.23 -8.96,-45.23 C-8.96,-45.23 -14.6,-45.23 -14.6,-45.23 C-14.6,-45.23 -17.22,-33.84 -17.22,-33.84 C-17.22,-33.84 -18.71,-27.25 -18.71,-27.25 C-18.71,-27.25 -18.82,-27.25 -18.82,-27.25 C-18.82,-27.25 -20.07,-33.84 -20.07,-33.84 C-20.07,-33.84 -22.32,-45.23 -22.32,-45.23 C-22.32,-45.23 -27.42,-45.23 -27.42,-45.23 C-27.42,-45.23 -22.05,-21.5 -22.05,-21.5 C-22.05,-21.5 -16.13,-21.5 -16.13,-21.5z"
        style="display: inherit;"></path>
    </g>
  </g>
</svg>